{
    "asset" : {
        "generator" : "Khronos glTF Blender I/O v1.6.16",
        "version" : "2.0"
    },
    "scene" : 0,
    "scenes" : [
        {
            "extras" : {
                "glTF2ExportSettings" : {
                    "export_animations" : 0,
                    "export_apply" : 1,
                    "export_extras" : 1,
                    "export_format" : "GLTF_EMBEDDED",
                    "export_morph" : 0,
                    "export_skins" : 0,
                    "use_renderable" : 0,
                    "use_selection" : 1,
                    "use_visible" : 0
                }
            },
            "name" : "Scene",
            "nodes" : [
                0
            ]
        }
    ],
    "nodes" : [
        {
            "mesh" : 0,
            "name" : "Cube.007",
            "scale" : [
                0.07375943660736084,
                1,
                1.655165672302246
            ],
            "translation" : [
                4.587381362915039,
                4.808638572692871,
                3.640751838684082
            ]
        }
    ],
    "materials" : [
        {
            "doubleSided" : true,
            "name" : "Black",
            "pbrMetallicRoughness" : {
                "baseColorFactor" : [
                    0.0036765087861567736,
                    0.002731742337346077,
                    0.002428215928375721,
                    1
                ],
                "metallicFactor" : 0,
                "roughnessFactor" : 0.5
            }
        },
        {
            "doubleSided" : true,
            "name" : "Dark Gray",
            "pbrMetallicRoughness" : {
                "baseColorFactor" : [
                    0.05126947909593582,
                    0.051269471645355225,
                    0.051269467920064926,
                    1
                ],
                "metallicFactor" : 0,
                "roughnessFactor" : 0.5
            }
        }
    ],
    "meshes" : [
        {
            "name" : "Cube.009",
            "primitives" : [
                {
                    "attributes" : {
                        "POSITION" : 0,
                        "NORMAL" : 1,
                        "TEXCOORD_0" : 2
                    },
                    "indices" : 3,
                    "material" : 0
                },
                {
                    "attributes" : {
                        "POSITION" : 4,
                        "NORMAL" : 5,
                        "TEXCOORD_0" : 6
                    },
                    "indices" : 7,
                    "material" : 1
                }
            ]
        }
    ],
    "accessors" : [
        {
            "bufferView" : 0,
            "componentType" : 5126,
            "count" : 646,
            "max" : [
                8.744339942932129,
                -0.464613139629364,
                0.6298415660858154
            ],
            "min" : [
                -0.046805620193481445,
                -2.093069314956665,
                -0.6298413872718811
            ],
            "type" : "VEC3"
        },
        {
            "bufferView" : 1,
            "componentType" : 5126,
            "count" : 646,
            "type" : "VEC3"
        },
        {
            "bufferView" : 2,
            "componentType" : 5126,
            "count" : 646,
            "type" : "VEC2"
        },
        {
            "bufferView" : 3,
            "componentType" : 5123,
            "count" : 1122,
            "type" : "SCALAR"
        },
        {
            "bufferView" : 4,
            "componentType" : 5126,
            "count" : 4,
            "max" : [
                1.608555555343628,
                -0.5150595307350159,
                0.5982792973518372
            ],
            "min" : [
                1.608555555343628,
                -1.67384934425354,
                -0.5982790589332581
            ],
            "type" : "VEC3"
        },
        {
            "bufferView" : 5,
            "componentType" : 5126,
            "count" : 4,
            "type" : "VEC3"
        },
        {
            "bufferView" : 6,
            "componentType" : 5126,
            "count" : 4,
            "type" : "VEC2"
        },
        {
            "bufferView" : 7,
            "componentType" : 5123,
            "count" : 6,
            "type" : "SCALAR"
        }
    ],
    "bufferViews" : [
        {
            "buffer" : 0,
            "byteLength" : 7752,
            "byteOffset" : 0
        },
        {
            "buffer" : 0,
            "byteLength" : 7752,
            "byteOffset" : 7752
        },
        {
            "buffer" : 0,
            "byteLength" : 5168,
            "byteOffset" : 15504
        },
        {
            "buffer" : 0,
            "byteLength" : 2244,
            "byteOffset" : 20672
        },
        {
            "buffer" : 0,
            "byteLength" : 48,
            "byteOffset" : 22916
        },
        {
            "buffer" : 0,
            "byteLength" : 48,
            "byteOffset" : 22964
        },
        {
            "buffer" : 0,
            "byteLength" : 32,
            "byteOffset" : 23012
        },
        {
            "buffer" : 0,
            "byteLength" : 12,
            "byteOffset" : 23044
        }
    ],
    "buffers" : [
        {
            "byteLength" : 23056,
            "uri" : "data:application/octet-stream;base64,"
        }
    ]
}
