{
    "asset" : {
        "generator" : "Khronos glTF Blender I/O v1.6.16",
        "version" : "2.0"
    },
    "scene" : 0,
    "scenes" : [
        {
            "extras" : {
                "glTF2ExportSettings" : {
                    "export_animations" : 0,
                    "export_apply" : 1,
                    "export_extras" : 1,
                    "export_format" : "GLTF_EMBEDDED",
                    "export_morph" : 0,
                    "export_skins" : 0,
                    "use_renderable" : 0,
                    "use_selection" : 1,
                    "use_visible" : 0
                }
            },
            "name" : "Scene",
            "nodes" : [
                0,
                1,
                2,
                3
            ]
        }
    ],
    "nodes" : [
        {
            "mesh" : 0,
            "name" : "Cube.002",
            "scale" : [
                1.4244049787521362,
                0.9842921495437622,
                0.8481724858283997
            ],
            "translation" : [
                4.109018325805664,
                1.6008787155151367,
                1.2380324602127075
            ]
        },
        {
            "mesh" : 1,
            "name" : "Plane.006",
            "scale" : [
                1.4325450658798218,
                1,
                3.263542413711548
            ],
            "translation" : [
                4.109373092651367,
                2.7131118774414062,
                3.640751838684082
            ]
        },
        {
            "mesh" : 2,
            "name" : "Sphere",
            "scale" : [
                0.07940711826086044,
                0.07940711826086044,
                0.07940711826086044
            ],
            "translation" : [
                2.659754514694214,
                2.096824884414673,
                1.253031849861145
            ]
        },
        {
            "mesh" : 3,
            "name" : "Sphere.001",
            "scale" : [
                0.07940711826086044,
                0.07940711826086044,
                0.07940711826086044
            ],
            "translation" : [
                2.659754514694214,
                1.088613748550415,
                1.253031849861145
            ]
        }
    ],
    "materials" : [
        {
            "doubleSided" : true,
            "name" : "Wood",
            "pbrMetallicRoughness" : {
                "baseColorFactor" : [
                    0.14995986223220825,
                    0.10702311247587204,
                    0.10224173963069916,
                    1
                ],
                "metallicFactor" : 0,
                "roughnessFactor" : 0.5
            }
        }
    ],
    "meshes" : [
        {
            "name" : "Cube.004",
            "primitives" : [
                {
                    "attributes" : {
                        "POSITION" : 0,
                        "NORMAL" : 1,
                        "TEXCOORD_0" : 2
                    },
                    "indices" : 3,
                    "material" : 0
                }
            ]
        },
        {
            "name" : "Plane.010",
            "primitives" : [
                {
                    "attributes" : {
                        "POSITION" : 4,
                        "NORMAL" : 5,
                        "TEXCOORD_0" : 6
                    },
                    "indices" : 7,
                    "material" : 0
                }
            ]
        },
        {
            "name" : "Sphere",
            "primitives" : [
                {
                    "attributes" : {
                        "POSITION" : 8,
                        "NORMAL" : 9,
                        "TEXCOORD_0" : 10
                    },
                    "indices" : 11
                }
            ]
        },
        {
            "name" : "Sphere.001",
            "primitives" : [
                {
                    "attributes" : {
                        "POSITION" : 12,
                        "NORMAL" : 13,
                        "TEXCOORD_0" : 14
                    },
                    "indices" : 15
                }
            ]
        }
    ],
    "accessors" : [
        {
            "bufferView" : 0,
            "componentType" : 5126,
            "count" : 2244,
            "max" : [
                1,
                1,
                6.665638446807861
            ],
            "min" : [
                -1.0174214839935303,
                -1,
                -1
            ],
            "type" : "VEC3"
        },
        {
            "bufferView" : 1,
            "componentType" : 5126,
            "count" : 2244,
            "type" : "VEC3"
        },
        {
            "bufferView" : 2,
            "componentType" : 5126,
            "count" : 2244,
            "type" : "VEC2"
        },
        {
            "bufferView" : 3,
            "componentType" : 5123,
            "count" : 3480,
            "type" : "SCALAR"
        },
        {
            "bufferView" : 4,
            "componentType" : 5126,
            "count" : 216,
            "max" : [
                1.023176908493042,
                0,
                1.023176908493042
            ],
            "min" : [
                -1.023176908493042,
                -0.13300000131130219,
                -1.023176908493042
            ],
            "type" : "VEC3"
        },
        {
            "bufferView" : 5,
            "componentType" : 5126,
            "count" : 216,
            "type" : "VEC3"
        },
        {
            "bufferView" : 6,
            "componentType" : 5126,
            "count" : 216,
            "type" : "VEC2"
        },
        {
            "bufferView" : 7,
            "componentType" : 5123,
            "count" : 324,
            "type" : "SCALAR"
        },
        {
            "bufferView" : 8,
            "componentType" : 5126,
            "count" : 3968,
            "max" : [
                0.9999997019767761,
                1.0000004768371582,
                61.13868713378906
            ],
            "min" : [
                -1.000001072883606,
                -1,
                -0.9999987483024597
            ],
            "type" : "VEC3"
        },
        {
            "bufferView" : 9,
            "componentType" : 5126,
            "count" : 3968,
            "type" : "VEC3"
        },
        {
            "bufferView" : 10,
            "componentType" : 5126,
            "count" : 3968,
            "type" : "VEC2"
        },
        {
            "bufferView" : 11,
            "componentType" : 5123,
            "count" : 5760,
            "type" : "SCALAR"
        },
        {
            "bufferView" : 12,
            "componentType" : 5126,
            "count" : 3968,
            "max" : [
                0.9999997019767761,
                1,
                61.13868713378906
            ],
            "min" : [
                -1.000001072883606,
                -1,
                -0.9999987483024597
            ],
            "type" : "VEC3"
        },
        {
            "bufferView" : 13,
            "componentType" : 5126,
            "count" : 3968,
            "type" : "VEC3"
        },
        {
            "bufferView" : 14,
            "componentType" : 5126,
            "count" : 3968,
            "type" : "VEC2"
        },
        {
            "bufferView" : 15,
            "componentType" : 5123,
            "count" : 5760,
            "type" : "SCALAR"
        }
    ],
    "bufferViews" : [
        {
            "buffer" : 0,
            "byteLength" : 26928,
            "byteOffset" : 0
        },
        {
            "buffer" : 0,
            "byteLength" : 26928,
            "byteOffset" : 26928
        },
        {
            "buffer" : 0,
            "byteLength" : 17952,
            "byteOffset" : 53856
        },
        {
            "buffer" : 0,
            "byteLength" : 6960,
            "byteOffset" : 71808
        },
        {
            "buffer" : 0,
            "byteLength" : 2592,
            "byteOffset" : 78768
        },
        {
            "buffer" : 0,
            "byteLength" : 2592,
            "byteOffset" : 81360
        },
        {
            "buffer" : 0,
            "byteLength" : 1728,
            "byteOffset" : 83952
        },
        {
            "buffer" : 0,
            "byteLength" : 648,
            "byteOffset" : 85680
        },
        {
            "buffer" : 0,
            "byteLength" : 47616,
            "byteOffset" : 86328
        },
        {
            "buffer" : 0,
            "byteLength" : 47616,
            "byteOffset" : 133944
        },
        {
            "buffer" : 0,
            "byteLength" : 31744,
            "byteOffset" : 181560
        },
        {
            "buffer" : 0,
            "byteLength" : 11520,
            "byteOffset" : 213304
        },
        {
            "buffer" : 0,
            "byteLength" : 47616,
            "byteOffset" : 224824
        },
        {
            "buffer" : 0,
            "byteLength" : 47616,
            "byteOffset" : 272440
        },
        {
            "buffer" : 0,
            "byteLength" : 31744,
            "byteOffset" : 320056
        },
        {
            "buffer" : 0,
            "byteLength" : 11520,
            "byteOffset" : 351800
        }
    ],
    "buffers" : [
        {
            "byteLength" : 363320,
            "uri" : "data:application/octet-stream;base64,"
        }
    ]
}
