{
    "asset" : {
        "generator" : "Khronos glTF Blender I/O v1.6.16",
        "version" : "2.0"
    },
    "scene" : 0,
    "scenes" : [
        {
            "name" : "Scene",
            "nodes" : [
                2
            ]
        }
    ],
    "nodes" : [
        {
            "mesh" : 0,
            "name" : "Cube.012",
            "scale" : [
                1.2621177434921265,
                0.051991064101457596,
                4.468936920166016
            ],
            "translation" : [
                0.005405426025390625,
                1.4067389965057373,
                -2.9167938232421875
            ]
        },
        {
            "mesh" : 1,
            "name" : "Cylinder",
            "scale" : [
                0.09346356242895126,
                0.19193588197231293,
                0.1373974233865738
            ],
            "translation" : [
                0.7522594928741455,
                1.1538434028625488,
                0.6874948143959045
            ]
        },
        {
            "children" : [
                0,
                1
            ],
            "mesh" : 2,
            "name" : "Cube.013",
            "rotation" : [
                0,
                1,
                0,
                -1.6292068494294654e-07
            ],
            "scale" : [
                1.157512903213501,
                0.882737398147583,
                0.7873893976211548
            ],
            "translation" : [
                4.166898727416992,
                1.3850563764572144,
                1.2636083364486694
            ]
        }
    ],
    "materials" : [
        {
            "doubleSided" : true,
            "name" : "modern-desk-black",
            "pbrMetallicRoughness" : {
                "baseColorFactor" : [
                    0.08001147210597992,
                    0.07699029892683029,
                    0.07925090193748474,
                    1
                ],
                "metallicFactor" : 0,
                "roughnessFactor" : 0.5
            }
        },
        {
            "doubleSided" : true,
            "name" : "White",
            "pbrMetallicRoughness" : {
                "baseColorFactor" : [
                    0.964686393737793,
                    0.9734453558921814,
                    0.9386858940124512,
                    1
                ],
                "metallicFactor" : 0,
                "roughnessFactor" : 0.5
            }
        }
    ],
    "meshes" : [
        {
            "name" : "Cube",
            "primitives" : [
                {
                    "attributes" : {
                        "POSITION" : 0,
                        "NORMAL" : 1,
                        "TEXCOORD_0" : 2
                    },
                    "indices" : 3,
                    "material" : 0
                }
            ]
        },
        {
            "name" : "Cylinder",
            "primitives" : [
                {
                    "attributes" : {
                        "POSITION" : 4,
                        "NORMAL" : 5,
                        "TEXCOORD_0" : 6
                    },
                    "indices" : 7,
                    "material" : 1
                }
            ]
        },
        {
            "name" : "Cube.001",
            "primitives" : [
                {
                    "attributes" : {
                        "POSITION" : 8,
                        "NORMAL" : 9,
                        "TEXCOORD_0" : 10
                    },
                    "indices" : 11,
                    "material" : 1
                },
                {
                    "attributes" : {
                        "POSITION" : 12,
                        "NORMAL" : 13,
                        "TEXCOORD_0" : 14
                    },
                    "indices" : 15,
                    "material" : 0
                }
            ]
        }
    ],
    "accessors" : [
        {
            "bufferView" : 0,
            "componentType" : 5126,
            "count" : 24,
            "max" : [
                1,
                1,
                1
            ],
            "min" : [
                -1,
                -1,
                -1
            ],
            "type" : "VEC3"
        },
        {
            "bufferView" : 1,
            "componentType" : 5126,
            "count" : 24,
            "type" : "VEC3"
        },
        {
            "bufferView" : 2,
            "componentType" : 5126,
            "count" : 24,
            "type" : "VEC2"
        },
        {
            "bufferView" : 3,
            "componentType" : 5123,
            "count" : 36,
            "type" : "SCALAR"
        },
        {
            "bufferView" : 4,
            "componentType" : 5126,
            "count" : 1536,
            "max" : [
                1.0000019073486328,
                1,
                1
            ],
            "min" : [
                -17.097373962402344,
                -1,
                -53.46516418457031
            ],
            "type" : "VEC3"
        },
        {
            "bufferView" : 5,
            "componentType" : 5126,
            "count" : 1536,
            "type" : "VEC3"
        },
        {
            "bufferView" : 6,
            "componentType" : 5126,
            "count" : 1536,
            "type" : "VEC2"
        },
        {
            "bufferView" : 7,
            "componentType" : 5123,
            "count" : 2976,
            "type" : "SCALAR"
        },
        {
            "bufferView" : 8,
            "componentType" : 5126,
            "count" : 1162,
            "max" : [
                1,
                1.1187947988510132,
                1
            ],
            "min" : [
                -1,
                -0.8812052011489868,
                -6.833588600158691
            ],
            "type" : "VEC3"
        },
        {
            "bufferView" : 9,
            "componentType" : 5126,
            "count" : 1162,
            "type" : "VEC3"
        },
        {
            "bufferView" : 10,
            "componentType" : 5126,
            "count" : 1162,
            "type" : "VEC2"
        },
        {
            "bufferView" : 11,
            "componentType" : 5123,
            "count" : 2628,
            "type" : "SCALAR"
        },
        {
            "bufferView" : 12,
            "componentType" : 5126,
            "count" : 24,
            "max" : [
                0.9458311200141907,
                1.0760936737060547,
                0.3898486793041229
            ],
            "min" : [
                0.9458310604095459,
                -0.29830849170684814,
                -6.223437309265137
            ],
            "type" : "VEC3"
        },
        {
            "bufferView" : 13,
            "componentType" : 5126,
            "count" : 24,
            "type" : "VEC3"
        },
        {
            "bufferView" : 14,
            "componentType" : 5126,
            "count" : 24,
            "type" : "VEC2"
        },
        {
            "bufferView" : 15,
            "componentType" : 5123,
            "count" : 36,
            "type" : "SCALAR"
        }
    ],
    "bufferViews" : [
        {
            "buffer" : 0,
            "byteLength" : 288,
            "byteOffset" : 0
        },
        {
            "buffer" : 0,
            "byteLength" : 288,
            "byteOffset" : 288
        },
        {
            "buffer" : 0,
            "byteLength" : 192,
            "byteOffset" : 576
        },
        {
            "buffer" : 0,
            "byteLength" : 72,
            "byteOffset" : 768
        },
        {
            "buffer" : 0,
            "byteLength" : 18432,
            "byteOffset" : 840
        },
        {
            "buffer" : 0,
            "byteLength" : 18432,
            "byteOffset" : 19272
        },
        {
            "buffer" : 0,
            "byteLength" : 12288,
            "byteOffset" : 37704
        },
        {
            "buffer" : 0,
            "byteLength" : 5952,
            "byteOffset" : 49992
        },
        {
            "buffer" : 0,
            "byteLength" : 13944,
            "byteOffset" : 55944
        },
        {
            "buffer" : 0,
            "byteLength" : 13944,
            "byteOffset" : 69888
        },
        {
            "buffer" : 0,
            "byteLength" : 9296,
            "byteOffset" : 83832
        },
        {
            "buffer" : 0,
            "byteLength" : 5256,
            "byteOffset" : 93128
        },
        {
            "buffer" : 0,
            "byteLength" : 288,
            "byteOffset" : 98384
        },
        {
            "buffer" : 0,
            "byteLength" : 288,
            "byteOffset" : 98672
        },
        {
            "buffer" : 0,
            "byteLength" : 192,
            "byteOffset" : 98960
        },
        {
            "buffer" : 0,
            "byteLength" : 72,
            "byteOffset" : 99152
        }
    ],
    "buffers" : [
        {
            "byteLength" : 99224,
            "uri" : "data:application/octet-stream;base64,"
        }
    ]
}
