{
    "asset" : {
        "generator" : "Khronos glTF Blender I/O v1.6.16",
        "version" : "2.0"
    },
    "scene" : 0,
    "scenes" : [
        {
            "name" : "Scene",
            "nodes" : [
                0
            ]
        }
    ],
    "nodes" : [
        {
            "mesh" : 0,
            "name" : "Cube.008",
            "scale" : [
                0.7042587995529175,
                0.7419556379318237,
                0.29774072766304016
            ],
            "translation" : [
                4.333832263946533,
                3.4604008197784424,
                6.091341972351074
            ]
        }
    ],
    "materials" : [
        {
            "doubleSided" : true,
            "name" : "Black",
            "pbrMetallicRoughness" : {
                "baseColorFactor" : [
                    0.0036765087861567736,
                    0.002731742337346077,
                    0.002428215928375721,
                    1
                ],
                "metallicFactor" : 0,
                "roughnessFactor" : 0.5
            }
        },
        {
            "doubleSided" : true,
            "name" : "Dark Gray",
            "pbrMetallicRoughness" : {
                "baseColorFactor" : [
                    0.05126947909593582,
                    0.051269471645355225,
                    0.051269467920064926,
                    1
                ],
                "metallicFactor" : 0,
                "roughnessFactor" : 0.5
            }
        }
    ],
    "meshes" : [
        {
            "name" : "Cube.010",
            "primitives" : [
                {
                    "attributes" : {
                        "POSITION" : 0,
                        "NORMAL" : 1,
                        "TEXCOORD_0" : 2
                    },
                    "indices" : 3,
                    "material" : 0
                },
                {
                    "attributes" : {
                        "POSITION" : 4,
                        "NORMAL" : 5,
                        "TEXCOORD_0" : 6
                    },
                    "indices" : 7,
                    "material" : 1
                }
            ]
        }
    ],
    "accessors" : [
        {
            "bufferView" : 0,
            "componentType" : 5126,
            "count" : 1488,
            "max" : [
                1,
                1,
                1
            ],
            "min" : [
                -1,
                -1,
                -1
            ],
            "type" : "VEC3"
        },
        {
            "bufferView" : 1,
            "componentType" : 5126,
            "count" : 1488,
            "type" : "VEC3"
        },
        {
            "bufferView" : 2,
            "componentType" : 5126,
            "count" : 1488,
            "type" : "VEC2"
        },
        {
            "bufferView" : 3,
            "componentType" : 5123,
            "count" : 2202,
            "type" : "SCALAR"
        },
        {
            "bufferView" : 4,
            "componentType" : 5126,
            "count" : 200,
            "max" : [
                -0.9440808296203613,
                0.9448204040527344,
                0.9179725646972656
            ],
            "min" : [
                -0.9440811276435852,
                -0.9448204040527344,
                -0.9179725646972656
            ],
            "type" : "VEC3"
        },
        {
            "bufferView" : 5,
            "componentType" : 5126,
            "count" : 200,
            "type" : "VEC3"
        },
        {
            "bufferView" : 6,
            "componentType" : 5126,
            "count" : 200,
            "type" : "VEC2"
        },
        {
            "bufferView" : 7,
            "componentType" : 5123,
            "count" : 288,
            "type" : "SCALAR"
        }
    ],
    "bufferViews" : [
        {
            "buffer" : 0,
            "byteLength" : 17856,
            "byteOffset" : 0
        },
        {
            "buffer" : 0,
            "byteLength" : 17856,
            "byteOffset" : 17856
        },
        {
            "buffer" : 0,
            "byteLength" : 11904,
            "byteOffset" : 35712
        },
        {
            "buffer" : 0,
            "byteLength" : 4404,
            "byteOffset" : 47616
        },
        {
            "buffer" : 0,
            "byteLength" : 2400,
            "byteOffset" : 52020
        },
        {
            "buffer" : 0,
            "byteLength" : 2400,
            "byteOffset" : 54420
        },
        {
            "buffer" : 0,
            "byteLength" : 1600,
            "byteOffset" : 56820
        },
        {
            "buffer" : 0,
            "byteLength" : 576,
            "byteOffset" : 58420
        }
    ],
    "buffers" : [
        {
            "byteLength" : 58996,
            "uri" : "data:application/octet-stream;base64,"
        }
    ]
}
