{
    "asset" : {
        "generator" : "Khronos glTF Blender I/O v1.6.16",
        "version" : "2.0"
    },
    "scene" : 0,
    "scenes" : [
        {
            "name" : "Scene",
            "nodes" : [
                0,
                1,
                2,
                3,
                4,
                5,
                6,
                7,
                8,
                9,
                10
            ]
        }
    ],
    "nodes" : [
        {
            "mesh" : 0,
            "name" : "NurbsPath",
            "rotation" : [
                0,
                -0.24250753223896027,
                0,
                0.9701495170593262
            ],
            "scale" : [
                0.20390929281711578,
                0.20390929281711578,
                0.20390929281711578
            ],
            "translation" : [
                -4.42297887802124,
                3.1188085079193115,
                -5.856590747833252
            ]
        },
        {
            "mesh" : 1,
            "name" : "NurbsPath.001",
            "rotation" : [
                0,
                -0.5903210639953613,
                0,
                0.8071685433387756
            ],
            "scale" : [
                0.20698964595794678,
                0.20698964595794678,
                0.20698964595794678
            ],
            "translation" : [
                -4.5562262535095215,
                3.129862070083618,
                -5.733656406402588
            ]
        },
        {
            "mesh" : 2,
            "name" : "NurbsPath.002",
            "rotation" : [
                0,
                -0.9928107857704163,
                0,
                -0.11969450116157532
            ],
            "scale" : [
                0.2817974090576172,
                0.2817974090576172,
                0.2817974090576172
            ],
            "translation" : [
                -4.736257076263428,
                3.2006919384002686,
                -5.982706546783447
            ]
        },
        {
            "mesh" : 3,
            "name" : "NurbsPath.003",
            "rotation" : [
                0,
                0.4503383934497833,
                0,
                0.8928579688072205
            ],
            "scale" : [
                0.2031727433204651,
                0.20317275822162628,
                0.2031727433204651
            ],
            "translation" : [
                -4.473331451416016,
                3.1298890113830566,
                -6.078732490539551
            ]
        },
        {
            "mesh" : 4,
            "name" : "Vert.002",
            "rotation" : [
                0,
                -0.16508671641349792,
                0,
                0.9862790703773499
            ],
            "scale" : [
                0.7508833408355713,
                0.6147927045822144,
                0.7508833408355713
            ],
            "translation" : [
                -4.5640764236450195,
                2.6079893112182617,
                -5.9226226806640625
            ]
        },
        {
            "mesh" : 5,
            "name" : "NurbsPath.004",
            "rotation" : [
                0,
                -0.8829911351203918,
                0,
                0.4693896174430847
            ],
            "scale" : [
                0.1285019963979721,
                0.1285019963979721,
                0.1285019963979721
            ],
            "translation" : [
                -4.652843952178955,
                3.0077295303344727,
                -5.838305473327637
            ]
        },
        {
            "mesh" : 6,
            "name" : "NurbsPath.005",
            "rotation" : [
                0,
                -0.3736574351787567,
                0,
                0.9275667667388916
            ],
            "scale" : [
                0.1285019963979721,
                0.1285019963979721,
                0.1285019963979721
            ],
            "translation" : [
                -4.4780378341674805,
                3.0077295303344727,
                -5.802065372467041
            ]
        },
        {
            "mesh" : 7,
            "name" : "Circle",
            "scale" : [
                0.32049819827079773,
                0.32049819827079773,
                0.32049819827079773
            ],
            "translation" : [
                -4.573443412780762,
                2.848858594894409,
                -5.917219638824463
            ]
        },
        {
            "mesh" : 8,
            "name" : "Cube.004",
            "translation" : [
                -4.568367958068848,
                1.5909181833267212,
                -5.956010818481445
            ]
        },
        {
            "mesh" : 9,
            "name" : "Cube.005",
            "scale" : [
                0.10536246746778488,
                0.2645765244960785,
                0.10536246746778488
            ],
            "translation" : [
                -5.443241596221924,
                0.7389984130859375,
                -5.078920841217041
            ]
        },
        {
            "mesh" : 10,
            "name" : "Sphere.002",
            "scale" : [
                0.08526569604873657,
                0.08526569604873657,
                0.08526569604873657
            ],
            "translation" : [
                -4.568367958068848,
                2.238473892211914,
                -4.710257053375244
            ]
        }
    ],
    "materials" : [
        {
            "doubleSided" : true,
            "name" : "Plant",
            "pbrMetallicRoughness" : {
                "baseColorFactor" : [
                    0.07618542015552521,
                    0.08228271454572678,
                    0.06301002949476242,
                    1
                ],
                "metallicFactor" : 0,
                "roughnessFactor" : 0.5
            }
        },
        {
            "doubleSided" : true,
            "name" : "Baseboard",
            "pbrMetallicRoughness" : {
                "baseColorFactor" : [
                    0.7230554819107056,
                    0.7529423236846924,
                    0.7991031408309937,
                    1
                ],
                "metallicFactor" : 0,
                "roughnessFactor" : 0.5
            }
        },
        {
            "doubleSided" : true,
            "name" : "Black",
            "pbrMetallicRoughness" : {
                "baseColorFactor" : [
                    0.0036765087861567736,
                    0.002731742337346077,
                    0.002428215928375721,
                    1
                ],
                "metallicFactor" : 0,
                "roughnessFactor" : 0.5
            }
        },
        {
            "doubleSided" : true,
            "name" : "Wood",
            "pbrMetallicRoughness" : {
                "baseColorFactor" : [
                    0.14995986223220825,
                    0.10702311247587204,
                    0.10224173963069916,
                    1
                ],
                "metallicFactor" : 0,
                "roughnessFactor" : 0.5
            }
        }
    ],
    "meshes" : [
        {
            "name" : "NurbsPath",
            "primitives" : [
                {
                    "attributes" : {
                        "POSITION" : 0,
                        "NORMAL" : 1,
                        "TEXCOORD_0" : 2
                    },
                    "indices" : 3,
                    "material" : 0
                }
            ]
        },
        {
            "name" : "NurbsPath.001",
            "primitives" : [
                {
                    "attributes" : {
                        "POSITION" : 4,
                        "NORMAL" : 5,
                        "TEXCOORD_0" : 6
                    },
                    "indices" : 3,
                    "material" : 0
                }
            ]
        },
        {
            "name" : "NurbsPath.002",
            "primitives" : [
                {
                    "attributes" : {
                        "POSITION" : 7,
                        "NORMAL" : 8,
                        "TEXCOORD_0" : 9
                    },
                    "indices" : 10,
                    "material" : 0
                }
            ]
        },
        {
            "name" : "NurbsPath.003",
            "primitives" : [
                {
                    "attributes" : {
                        "POSITION" : 11,
                        "NORMAL" : 12,
                        "TEXCOORD_0" : 13
                    },
                    "indices" : 3,
                    "material" : 0
                }
            ]
        },
        {
            "name" : "Vert.002",
            "primitives" : [
                {
                    "attributes" : {
                        "POSITION" : 14,
                        "NORMAL" : 15
                    },
                    "indices" : 16,
                    "material" : 1
                }
            ]
        },
        {
            "name" : "NurbsPath.004",
            "primitives" : [
                {
                    "attributes" : {
                        "POSITION" : 17,
                        "NORMAL" : 18,
                        "TEXCOORD_0" : 19
                    },
                    "indices" : 3,
                    "material" : 0
                }
            ]
        },
        {
            "name" : "NurbsPath.005",
            "primitives" : [
                {
                    "attributes" : {
                        "POSITION" : 20,
                        "NORMAL" : 21,
                        "TEXCOORD_0" : 22
                    },
                    "indices" : 3
                }
            ]
        },
        {
            "name" : "Circle",
            "primitives" : [
                {
                    "attributes" : {
                        "POSITION" : 23,
                        "NORMAL" : 24,
                        "TEXCOORD_0" : 25
                    },
                    "indices" : 26,
                    "material" : 2
                }
            ]
        },
        {
            "name" : "Cube.006",
            "primitives" : [
                {
                    "attributes" : {
                        "POSITION" : 27,
                        "NORMAL" : 28,
                        "TEXCOORD_0" : 29
                    },
                    "indices" : 30,
                    "material" : 3
                }
            ]
        },
        {
            "name" : "Cube.007",
            "primitives" : [
                {
                    "attributes" : {
                        "POSITION" : 31,
                        "NORMAL" : 32,
                        "TEXCOORD_0" : 33
                    },
                    "indices" : 34,
                    "material" : 1
                }
            ]
        },
        {
            "name" : "Sphere.002",
            "primitives" : [
                {
                    "attributes" : {
                        "POSITION" : 35,
                        "NORMAL" : 36,
                        "TEXCOORD_0" : 37
                    },
                    "indices" : 38,
                    "material" : 1
                }
            ]
        }
    ],
    "accessors" : [
        {
            "bufferView" : 0,
            "componentType" : 5126,
            "count" : 336,
            "max" : [
                2.1549460887908936,
                1.1750408411026,
                0.2594105303287506
            ],
            "min" : [
                -0.7747521996498108,
                -1.7541292905807495,
                -0.259414404630661
            ],
            "type" : "VEC3"
        },
        {
            "bufferView" : 1,
            "componentType" : 5126,
            "count" : 336,
            "type" : "VEC3"
        },
        {
            "bufferView" : 2,
            "componentType" : 5126,
            "count" : 336,
            "type" : "VEC2"
        },
        {
            "bufferView" : 3,
            "componentType" : 5123,
            "count" : 1716,
            "type" : "SCALAR"
        },
        {
            "bufferView" : 4,
            "componentType" : 5126,
            "count" : 336,
            "max" : [
                2.1549460887908936,
                1.1750408411026,
                0.2594105303287506
            ],
            "min" : [
                -0.7747521996498108,
                -1.7541292905807495,
                -0.259414404630661
            ],
            "type" : "VEC3"
        },
        {
            "bufferView" : 5,
            "componentType" : 5126,
            "count" : 336,
            "type" : "VEC3"
        },
        {
            "bufferView" : 6,
            "componentType" : 5126,
            "count" : 336,
            "type" : "VEC2"
        },
        {
            "bufferView" : 7,
            "componentType" : 5126,
            "count" : 336,
            "max" : [
                1.434073567390442,
                0.852177619934082,
                0.3168080449104309
            ],
            "min" : [
                -0.7915737628936768,
                -1.7368481159210205,
                -0.22027112543582916
            ],
            "type" : "VEC3"
        },
        {
            "bufferView" : 8,
            "componentType" : 5126,
            "count" : 336,
            "type" : "VEC3"
        },
        {
            "bufferView" : 9,
            "componentType" : 5126,
            "count" : 336,
            "type" : "VEC2"
        },
        {
            "bufferView" : 10,
            "componentType" : 5123,
            "count" : 1716,
            "type" : "SCALAR"
        },
        {
            "bufferView" : 11,
            "componentType" : 5126,
            "count" : 336,
            "max" : [
                2.1549460887908936,
                1.1750408411026,
                0.2594105303287506
            ],
            "min" : [
                -0.7747521996498108,
                -1.7541292905807495,
                -0.259414404630661
            ],
            "type" : "VEC3"
        },
        {
            "bufferView" : 12,
            "componentType" : 5126,
            "count" : 336,
            "type" : "VEC3"
        },
        {
            "bufferView" : 13,
            "componentType" : 5126,
            "count" : 336,
            "type" : "VEC2"
        },
        {
            "bufferView" : 14,
            "componentType" : 5126,
            "count" : 2178,
            "max" : [
                0.44190552830696106,
                0.5445948243141174,
                0.44190552830696106
            ],
            "min" : [
                -0.44190552830696106,
                -0.025060346350073814,
                -0.44190552830696106
            ],
            "type" : "VEC3"
        },
        {
            "bufferView" : 15,
            "componentType" : 5126,
            "count" : 2178,
            "type" : "VEC3"
        },
        {
            "bufferView" : 16,
            "componentType" : 5123,
            "count" : 13056,
            "type" : "SCALAR"
        },
        {
            "bufferView" : 17,
            "componentType" : 5126,
            "count" : 336,
            "max" : [
                2.1549460887908936,
                1.1750408411026,
                0.2594105303287506
            ],
            "min" : [
                -0.7747521996498108,
                -1.7541292905807495,
                -0.259414404630661
            ],
            "type" : "VEC3"
        },
        {
            "bufferView" : 18,
            "componentType" : 5126,
            "count" : 336,
            "type" : "VEC3"
        },
        {
            "bufferView" : 19,
            "componentType" : 5126,
            "count" : 336,
            "type" : "VEC2"
        },
        {
            "bufferView" : 20,
            "componentType" : 5126,
            "count" : 336,
            "max" : [
                2.1549460887908936,
                1.1750408411026,
                0.2594105303287506
            ],
            "min" : [
                -0.7747521996498108,
                -1.7541292905807495,
                -0.259414404630661
            ],
            "type" : "VEC3"
        },
        {
            "bufferView" : 21,
            "componentType" : 5126,
            "count" : 336,
            "type" : "VEC3"
        },
        {
            "bufferView" : 22,
            "componentType" : 5126,
            "count" : 336,
            "type" : "VEC2"
        },
        {
            "bufferView" : 23,
            "componentType" : 5126,
            "count" : 42,
            "max" : [
                1,
                0,
                1
            ],
            "min" : [
                -1,
                0,
                -1
            ],
            "type" : "VEC3"
        },
        {
            "bufferView" : 24,
            "componentType" : 5126,
            "count" : 42,
            "type" : "VEC3"
        },
        {
            "bufferView" : 25,
            "componentType" : 5126,
            "count" : 42,
            "type" : "VEC2"
        },
        {
            "bufferView" : 26,
            "componentType" : 5123,
            "count" : 90,
            "type" : "SCALAR"
        },
        {
            "bufferView" : 27,
            "componentType" : 5126,
            "count" : 2077,
            "max" : [
                1,
                1,
                1.2457537651062012
            ],
            "min" : [
                -1,
                -0.6096924543380737,
                -1
            ],
            "type" : "VEC3"
        },
        {
            "bufferView" : 28,
            "componentType" : 5126,
            "count" : 2077,
            "type" : "VEC3"
        },
        {
            "bufferView" : 29,
            "componentType" : 5126,
            "count" : 2077,
            "type" : "VEC2"
        },
        {
            "bufferView" : 30,
            "componentType" : 5123,
            "count" : 2562,
            "type" : "SCALAR"
        },
        {
            "bufferView" : 31,
            "componentType" : 5126,
            "count" : 1024,
            "max" : [
                17.606931686401367,
                1,
                1
            ],
            "min" : [
                -1,
                -1.0000004768371582,
                -17.649002075195312
            ],
            "type" : "VEC3"
        },
        {
            "bufferView" : 32,
            "componentType" : 5126,
            "count" : 1024,
            "type" : "VEC3"
        },
        {
            "bufferView" : 33,
            "componentType" : 5126,
            "count" : 1024,
            "type" : "VEC2"
        },
        {
            "bufferView" : 34,
            "componentType" : 5123,
            "count" : 1296,
            "type" : "SCALAR"
        },
        {
            "bufferView" : 35,
            "componentType" : 5126,
            "count" : 2842,
            "max" : [
                0.9999997019767761,
                1,
                0.9999994039535522
            ],
            "min" : [
                -0.9999990463256836,
                -1,
                -0.9999987483024597
            ],
            "type" : "VEC3"
        },
        {
            "bufferView" : 36,
            "componentType" : 5126,
            "count" : 2842,
            "type" : "VEC3"
        },
        {
            "bufferView" : 37,
            "componentType" : 5126,
            "count" : 2842,
            "type" : "VEC2"
        },
        {
            "bufferView" : 38,
            "componentType" : 5123,
            "count" : 2880,
            "type" : "SCALAR"
        }
    ],
    "bufferViews" : [
        {
            "buffer" : 0,
            "byteLength" : 4032,
            "byteOffset" : 0
        },
        {
            "buffer" : 0,
            "byteLength" : 4032,
            "byteOffset" : 4032
        },
        {
            "buffer" : 0,
            "byteLength" : 2688,
            "byteOffset" : 8064
        },
        {
            "buffer" : 0,
            "byteLength" : 3432,
            "byteOffset" : 10752
        },
        {
            "buffer" : 0,
            "byteLength" : 4032,
            "byteOffset" : 14184
        },
        {
            "buffer" : 0,
            "byteLength" : 4032,
            "byteOffset" : 18216
        },
        {
            "buffer" : 0,
            "byteLength" : 2688,
            "byteOffset" : 22248
        },
        {
            "buffer" : 0,
            "byteLength" : 4032,
            "byteOffset" : 24936
        },
        {
            "buffer" : 0,
            "byteLength" : 4032,
            "byteOffset" : 28968
        },
        {
            "buffer" : 0,
            "byteLength" : 2688,
            "byteOffset" : 33000
        },
        {
            "buffer" : 0,
            "byteLength" : 3432,
            "byteOffset" : 35688
        },
        {
            "buffer" : 0,
            "byteLength" : 4032,
            "byteOffset" : 39120
        },
        {
            "buffer" : 0,
            "byteLength" : 4032,
            "byteOffset" : 43152
        },
        {
            "buffer" : 0,
            "byteLength" : 2688,
            "byteOffset" : 47184
        },
        {
            "buffer" : 0,
            "byteLength" : 26136,
            "byteOffset" : 49872
        },
        {
            "buffer" : 0,
            "byteLength" : 26136,
            "byteOffset" : 76008
        },
        {
            "buffer" : 0,
            "byteLength" : 26112,
            "byteOffset" : 102144
        },
        {
            "buffer" : 0,
            "byteLength" : 4032,
            "byteOffset" : 128256
        },
        {
            "buffer" : 0,
            "byteLength" : 4032,
            "byteOffset" : 132288
        },
        {
            "buffer" : 0,
            "byteLength" : 2688,
            "byteOffset" : 136320
        },
        {
            "buffer" : 0,
            "byteLength" : 4032,
            "byteOffset" : 139008
        },
        {
            "buffer" : 0,
            "byteLength" : 4032,
            "byteOffset" : 143040
        },
        {
            "buffer" : 0,
            "byteLength" : 2688,
            "byteOffset" : 147072
        },
        {
            "buffer" : 0,
            "byteLength" : 504,
            "byteOffset" : 149760
        },
        {
            "buffer" : 0,
            "byteLength" : 504,
            "byteOffset" : 150264
        },
        {
            "buffer" : 0,
            "byteLength" : 336,
            "byteOffset" : 150768
        },
        {
            "buffer" : 0,
            "byteLength" : 180,
            "byteOffset" : 151104
        },
        {
            "buffer" : 0,
            "byteLength" : 24924,
            "byteOffset" : 151284
        },
        {
            "buffer" : 0,
            "byteLength" : 24924,
            "byteOffset" : 176208
        },
        {
            "buffer" : 0,
            "byteLength" : 16616,
            "byteOffset" : 201132
        },
        {
            "buffer" : 0,
            "byteLength" : 5124,
            "byteOffset" : 217748
        },
        {
            "buffer" : 0,
            "byteLength" : 12288,
            "byteOffset" : 222872
        },
        {
            "buffer" : 0,
            "byteLength" : 12288,
            "byteOffset" : 235160
        },
        {
            "buffer" : 0,
            "byteLength" : 8192,
            "byteOffset" : 247448
        },
        {
            "buffer" : 0,
            "byteLength" : 2592,
            "byteOffset" : 255640
        },
        {
            "buffer" : 0,
            "byteLength" : 34104,
            "byteOffset" : 258232
        },
        {
            "buffer" : 0,
            "byteLength" : 34104,
            "byteOffset" : 292336
        },
        {
            "buffer" : 0,
            "byteLength" : 22736,
            "byteOffset" : 326440
        },
        {
            "buffer" : 0,
            "byteLength" : 5760,
            "byteOffset" : 349176
        }
    ],
    "buffers" : [
        {
            "byteLength" : 354936,
            "uri" : "data:application/octet-stream;base64,"
        }
    ]
}
