{
    "asset" : {
        "generator" : "Khronos glTF Blender I/O v1.6.16",
        "version" : "2.0"
    },
    "scene" : 0,
    "scenes" : [
        {
            "name" : "Scene",
            "nodes" : [
                0,
                1
            ]
        }
    ],
    "nodes" : [
        {
            "mesh" : 0,
            "name" : "Plane.013",
            "rotation" : [
                0,
                -0.2499038428068161,
                0,
                0.9682707786560059
            ],
            "scale" : [
                0.725113034248352,
                0.725113034248352,
                0.725113034248352
            ],
            "translation" : [
                0.7689895629882812,
                1.608280897140503,
                3.890601634979248
            ]
        },
        {
            "mesh" : 1,
            "name" : "Plane.014",
            "rotation" : [
                0,
                -0.2499038428068161,
                0,
                0.9682707786560059
            ],
            "scale" : [
                0.725113034248352,
                0.725113034248352,
                0.725113034248352
            ],
            "translation" : [
                0.7689895629882812,
                1.608280897140503,
                3.890601634979248
            ]
        }
    ],
    "materials" : [
        {
            "doubleSided" : true,
            "name" : "Walls.004",
            "pbrMetallicRoughness" : {
                "baseColorFactor" : [
                    0.0930589884519577,
                    0.06847819685935974,
                    0.4793201982975006,
                    1
                ],
                "metallicFactor" : 0,
                "roughnessFactor" : 0.5
            }
        },
        {
            "doubleSided" : true,
            "name" : "Baseboard.004",
            "pbrMetallicRoughness" : {
                "baseColorFactor" : [
                    0.7230554819107056,
                    0.7529423236846924,
                    0.7991031408309937,
                    1
                ],
                "metallicFactor" : 0,
                "roughnessFactor" : 0.5
            }
        }
    ],
    "meshes" : [
        {
            "name" : "Plane.010",
            "primitives" : [
                {
                    "attributes" : {
                        "POSITION" : 0,
                        "NORMAL" : 1,
                        "TEXCOORD_0" : 2
                    },
                    "indices" : 3,
                    "material" : 0
                },
                {
                    "attributes" : {
                        "POSITION" : 4,
                        "NORMAL" : 5,
                        "TEXCOORD_0" : 6
                    },
                    "indices" : 7,
                    "material" : 1
                }
            ]
        },
        {
            "name" : "Plane.011",
            "primitives" : [
                {
                    "attributes" : {
                        "POSITION" : 8,
                        "NORMAL" : 9,
                        "TEXCOORD_0" : 10
                    },
                    "indices" : 11,
                    "material" : 0
                },
                {
                    "attributes" : {
                        "POSITION" : 12,
                        "NORMAL" : 13,
                        "TEXCOORD_0" : 14
                    },
                    "indices" : 15,
                    "material" : 1
                }
            ]
        }
    ],
    "accessors" : [
        {
            "bufferView" : 0,
            "componentType" : 5126,
            "count" : 128,
            "max" : [
                0.952074408531189,
                3.0361318588256836,
                1
            ],
            "min" : [
                -1.530799388885498,
                -0.3310743570327759,
                -1.0081006288528442
            ],
            "type" : "VEC3"
        },
        {
            "bufferView" : 1,
            "componentType" : 5126,
            "count" : 128,
            "type" : "VEC3"
        },
        {
            "bufferView" : 2,
            "componentType" : 5126,
            "count" : 128,
            "type" : "VEC2"
        },
        {
            "bufferView" : 3,
            "componentType" : 5123,
            "count" : 204,
            "type" : "SCALAR"
        },
        {
            "bufferView" : 4,
            "componentType" : 5126,
            "count" : 469,
            "max" : [
                0.9252310991287231,
                -0.19273269176483154,
                1.178007960319519
            ],
            "min" : [
                -1.430785059928894,
                -1.4003112316131592,
                -1.178007960319519
            ],
            "type" : "VEC3"
        },
        {
            "bufferView" : 5,
            "componentType" : 5126,
            "count" : 469,
            "type" : "VEC3"
        },
        {
            "bufferView" : 6,
            "componentType" : 5126,
            "count" : 469,
            "type" : "VEC2"
        },
        {
            "bufferView" : 7,
            "componentType" : 5123,
            "count" : 594,
            "type" : "SCALAR"
        },
        {
            "bufferView" : 8,
            "componentType" : 5126,
            "count" : 136,
            "max" : [
                0.4533126950263977,
                0.751050591468811,
                1.3713274002075195
            ],
            "min" : [
                -1.0685756206512451,
                0.5869214534759521,
                -1.3713274002075195
            ],
            "type" : "VEC3"
        },
        {
            "bufferView" : 9,
            "componentType" : 5126,
            "count" : 136,
            "type" : "VEC3"
        },
        {
            "bufferView" : 10,
            "componentType" : 5126,
            "count" : 136,
            "type" : "VEC2"
        },
        {
            "bufferView" : 11,
            "componentType" : 5123,
            "count" : 144,
            "type" : "SCALAR"
        },
        {
            "bufferView" : 12,
            "componentType" : 5126,
            "count" : 262,
            "max" : [
                0.5395838022232056,
                0.6433106660842896,
                1.18604576587677
            ],
            "min" : [
                -1.2877758741378784,
                0.018361764028668404,
                -1.18604576587677
            ],
            "type" : "VEC3"
        },
        {
            "bufferView" : 13,
            "componentType" : 5126,
            "count" : 262,
            "type" : "VEC3"
        },
        {
            "bufferView" : 14,
            "componentType" : 5126,
            "count" : 262,
            "type" : "VEC2"
        },
        {
            "bufferView" : 15,
            "componentType" : 5123,
            "count" : 288,
            "type" : "SCALAR"
        }
    ],
    "bufferViews" : [
        {
            "buffer" : 0,
            "byteLength" : 1536,
            "byteOffset" : 0
        },
        {
            "buffer" : 0,
            "byteLength" : 1536,
            "byteOffset" : 1536
        },
        {
            "buffer" : 0,
            "byteLength" : 1024,
            "byteOffset" : 3072
        },
        {
            "buffer" : 0,
            "byteLength" : 408,
            "byteOffset" : 4096
        },
        {
            "buffer" : 0,
            "byteLength" : 5628,
            "byteOffset" : 4504
        },
        {
            "buffer" : 0,
            "byteLength" : 5628,
            "byteOffset" : 10132
        },
        {
            "buffer" : 0,
            "byteLength" : 3752,
            "byteOffset" : 15760
        },
        {
            "buffer" : 0,
            "byteLength" : 1188,
            "byteOffset" : 19512
        },
        {
            "buffer" : 0,
            "byteLength" : 1632,
            "byteOffset" : 20700
        },
        {
            "buffer" : 0,
            "byteLength" : 1632,
            "byteOffset" : 22332
        },
        {
            "buffer" : 0,
            "byteLength" : 1088,
            "byteOffset" : 23964
        },
        {
            "buffer" : 0,
            "byteLength" : 288,
            "byteOffset" : 25052
        },
        {
            "buffer" : 0,
            "byteLength" : 3144,
            "byteOffset" : 25340
        },
        {
            "buffer" : 0,
            "byteLength" : 3144,
            "byteOffset" : 28484
        },
        {
            "buffer" : 0,
            "byteLength" : 2096,
            "byteOffset" : 31628
        },
        {
            "buffer" : 0,
            "byteLength" : 576,
            "byteOffset" : 33724
        }
    ],
    "buffers" : [
        {
            "byteLength" : 34300,
            "uri" : "data:application/octet-stream;base64,"
        }
    ]
}
