{
    "asset" : {
        "generator" : "Khronos glTF Blender I/O v1.6.16",
        "version" : "2.0"
    },
    "scene" : 0,
    "scenes" : [
        {
            "extras" : {
                "glTF2ExportSettings" : {
                    "export_animations" : 0,
                    "export_apply" : 1,
                    "export_extras" : 1,
                    "export_format" : "GLTF_EMBEDDED",
                    "export_morph" : 0,
                    "export_skins" : 0,
                    "use_renderable" : 0,
                    "use_selection" : 1,
                    "use_visible" : 0
                }
            },
            "name" : "Scene",
            "nodes" : [
                1
            ]
        }
    ],
    "nodes" : [
        {
            "mesh" : 0,
            "name" : "Lampshade",
            "translation" : [
                0,
                0.2199999988079071,
                0
            ]
        },
        {
            "children" : [
                0
            ],
            "mesh" : 1,
            "name" : "Lamp_base",
            "scale" : [
                3.1176490783691406,
                3.1176490783691406,
                3.1176490783691406
            ],
            "translation" : [
                4.489166259765625,
                2.7018117904663086,
                1.1969085931777954
            ]
        }
    ],
    "materials" : [
        {
            "doubleSided" : true,
            "name" : "Floor",
            "pbrMetallicRoughness" : {
                "baseColorFactor" : [
                    0.6938720941543579,
                    0.6239606142044067,
                    0.4910208582878113,
                    1
                ],
                "metallicFactor" : 0,
                "roughnessFactor" : 0.5
            }
        },
        {
            "doubleSided" : true,
            "name" : "Baseboard",
            "pbrMetallicRoughness" : {
                "baseColorFactor" : [
                    0.7230554819107056,
                    0.7529423236846924,
                    0.7991031408309937,
                    1
                ],
                "metallicFactor" : 0,
                "roughnessFactor" : 0.5
            }
        }
    ],
    "meshes" : [
        {
            "name" : "Lampshade",
            "primitives" : [
                {
                    "attributes" : {
                        "POSITION" : 0,
                        "NORMAL" : 1
                    },
                    "indices" : 2,
                    "material" : 0
                }
            ]
        },
        {
            "name" : "Lamp_base",
            "primitives" : [
                {
                    "attributes" : {
                        "POSITION" : 3,
                        "NORMAL" : 4
                    },
                    "indices" : 5,
                    "material" : 1
                }
            ]
        }
    ],
    "accessors" : [
        {
            "bufferView" : 0,
            "componentType" : 5126,
            "count" : 192,
            "max" : [
                0.1599999964237213,
                0.20000000298023224,
                0.1599999964237213
            ],
            "min" : [
                -0.1599999964237213,
                0,
                -0.1599999964237213
            ],
            "type" : "VEC3"
        },
        {
            "bufferView" : 1,
            "componentType" : 5126,
            "count" : 192,
            "type" : "VEC3"
        },
        {
            "bufferView" : 2,
            "componentType" : 5123,
            "count" : 960,
            "type" : "SCALAR"
        },
        {
            "bufferView" : 3,
            "componentType" : 5126,
            "count" : 1922,
            "max" : [
                0.08446763455867767,
                0.20024999976158142,
                0.08446763455867767
            ],
            "min" : [
                -0.08446763455867767,
                0.0007500001229345798,
                -0.08446763455867767
            ],
            "type" : "VEC3"
        },
        {
            "bufferView" : 4,
            "componentType" : 5126,
            "count" : 1922,
            "type" : "VEC3"
        },
        {
            "bufferView" : 5,
            "componentType" : 5123,
            "count" : 11520,
            "type" : "SCALAR"
        }
    ],
    "bufferViews" : [
        {
            "buffer" : 0,
            "byteLength" : 2304,
            "byteOffset" : 0
        },
        {
            "buffer" : 0,
            "byteLength" : 2304,
            "byteOffset" : 2304
        },
        {
            "buffer" : 0,
            "byteLength" : 1920,
            "byteOffset" : 4608
        },
        {
            "buffer" : 0,
            "byteLength" : 23064,
            "byteOffset" : 6528
        },
        {
            "buffer" : 0,
            "byteLength" : 23064,
            "byteOffset" : 29592
        },
        {
            "buffer" : 0,
            "byteLength" : 23040,
            "byteOffset" : 52656
        }
    ],
    "buffers" : [
        {
            "byteLength" : 75696,
            "uri" : "data:application/octet-stream;base64,"
        }
    ]
}
