{
    "asset" : {
        "generator" : "Khronos glTF Blender I/O v1.6.16",
        "version" : "2.0"
    },
    "scene" : 0,
    "scenes" : [
        {
            "name" : "Scene",
            "nodes" : [
                0,
                1,
                2,
                3,
                4,
                5
            ]
        }
    ],
    "nodes" : [
        {
            "mesh" : 0,
            "name" : "Cube.001",
            "scale" : [
                0.1473635584115982,
                0.5983222126960754,
                0.1473635584115982
            ],
            "translation" : [
                -0.7563636302947998,
                0.8939380645751953,
                -6.754550933837891
            ]
        },
        {
            "mesh" : 1,
            "name" : "Plane.002",
            "scale" : [
                3.474508047103882,
                1,
                1.9725089073181152
            ],
            "translation" : [
                2.510972738265991,
                1.545743703842163,
                -4.963678359985352
            ]
        },
        {
            "mesh" : 2,
            "name" : "Plane.003",
            "scale" : [
                3.1002824306488037,
                0.9777107834815979,
                1.907182216644287
            ],
            "translation" : [
                2.2212135791778564,
                1.9382081031799316,
                -4.963678359985352
            ]
        },
        {
            "mesh" : 3,
            "name" : "Plane.004",
            "scale" : [
                0.2992304265499115,
                0.9777107834815979,
                1.9285430908203125
            ],
            "translation" : [
                5.654743194580078,
                2.5660696029663086,
                -4.963678359985352
            ]
        },
        {
            "mesh" : 4,
            "name" : "Plane.005",
            "rotation" : [
                0,
                0.7071067690849304,
                0,
                0.7071068286895752
            ],
            "scale" : [
                0.7952033877372742,
                0.7108848094940186,
                0.4310881495475769
            ],
            "translation" : [
                4.552218437194824,
                2.2845757007598877,
                -4.96507453918457
            ]
        },
        {
            "mesh" : 5,
            "name" : "Plane.007",
            "scale" : [
                3.1002824306488037,
                0.9777107834815979,
                1.907182216644287
            ],
            "translation" : [
                2.2212135791778564,
                1.9382081031799316,
                -4.963678359985352
            ]
        }
    ],
    "materials" : [
        {
            "doubleSided" : true,
            "name" : "Baseboard.002",
            "pbrMetallicRoughness" : {
                "baseColorFactor" : [
                    0.7230554819107056,
                    0.7529423236846924,
                    0.7991031408309937,
                    1
                ],
                "metallicFactor" : 0,
                "roughnessFactor" : 0.5
            }
        },
        {
            "doubleSided" : true,
            "name" : "Wood.001",
            "pbrMetallicRoughness" : {
                "baseColorFactor" : [
                    0.14995986223220825,
                    0.10702311247587204,
                    0.10224173963069916,
                    1
                ],
                "metallicFactor" : 0,
                "roughnessFactor" : 0.5
            }
        },
        {
            "doubleSided" : true,
            "name" : "White",
            "pbrMetallicRoughness" : {
                "baseColorFactor" : [
                    0.964686393737793,
                    0.9734453558921814,
                    0.9386858940124512,
                    1
                ],
                "metallicFactor" : 0,
                "roughnessFactor" : 0.5
            }
        },
        {
            "doubleSided" : true,
            "name" : "Walls.002",
            "pbrMetallicRoughness" : {
                "baseColorFactor" : [
                    0.47932031750679016,
                    0.09084165841341019,
                    0.11953849345445633,
                    1
                ],
                "metallicFactor" : 0,
                "roughnessFactor" : 0.5
            }
        }
    ],
    "meshes" : [
        {
            "name" : "Cube.002",
            "primitives" : [
                {
                    "attributes" : {
                        "POSITION" : 0,
                        "NORMAL" : 1,
                        "TEXCOORD_0" : 2
                    },
                    "indices" : 3,
                    "material" : 0
                }
            ]
        },
        {
            "name" : "Plane.003",
            "primitives" : [
                {
                    "attributes" : {
                        "POSITION" : 4,
                        "NORMAL" : 5,
                        "TEXCOORD_0" : 6
                    },
                    "indices" : 7,
                    "material" : 1
                }
            ]
        },
        {
            "name" : "Plane.004",
            "primitives" : [
                {
                    "attributes" : {
                        "POSITION" : 8,
                        "NORMAL" : 9,
                        "TEXCOORD_0" : 10
                    },
                    "indices" : 7,
                    "material" : 2
                }
            ]
        },
        {
            "name" : "Plane.005",
            "primitives" : [
                {
                    "attributes" : {
                        "POSITION" : 11,
                        "NORMAL" : 12,
                        "TEXCOORD_0" : 13
                    },
                    "indices" : 14,
                    "material" : 1
                }
            ]
        },
        {
            "name" : "Plane.006",
            "primitives" : [
                {
                    "attributes" : {
                        "POSITION" : 15,
                        "NORMAL" : 16,
                        "TEXCOORD_0" : 17
                    },
                    "indices" : 18,
                    "material" : 2
                }
            ]
        },
        {
            "name" : "Plane.009",
            "primitives" : [
                {
                    "attributes" : {
                        "POSITION" : 19,
                        "NORMAL" : 20,
                        "TEXCOORD_0" : 21
                    },
                    "indices" : 22,
                    "material" : 3
                }
            ]
        }
    ],
    "accessors" : [
        {
            "bufferView" : 0,
            "componentType" : 5126,
            "count" : 312,
            "max" : [
                45.34387969970703,
                1,
                25.305503845214844
            ],
            "min" : [
                -1,
                -1,
                -1.0000009536743164
            ],
            "type" : "VEC3"
        },
        {
            "bufferView" : 1,
            "componentType" : 5126,
            "count" : 312,
            "type" : "VEC3"
        },
        {
            "bufferView" : 2,
            "componentType" : 5126,
            "count" : 312,
            "type" : "VEC2"
        },
        {
            "bufferView" : 3,
            "componentType" : 5123,
            "count" : 1296,
            "type" : "SCALAR"
        },
        {
            "bufferView" : 4,
            "componentType" : 5126,
            "count" : 104,
            "max" : [
                1,
                0,
                1
            ],
            "min" : [
                -1,
                -0.4050000011920929,
                -1
            ],
            "type" : "VEC3"
        },
        {
            "bufferView" : 5,
            "componentType" : 5126,
            "count" : 104,
            "type" : "VEC3"
        },
        {
            "bufferView" : 6,
            "componentType" : 5126,
            "count" : 104,
            "type" : "VEC2"
        },
        {
            "bufferView" : 7,
            "componentType" : 5123,
            "count" : 132,
            "type" : "SCALAR"
        },
        {
            "bufferView" : 8,
            "componentType" : 5126,
            "count" : 104,
            "max" : [
                1,
                0,
                1
            ],
            "min" : [
                -1,
                -0.4050000011920929,
                -1
            ],
            "type" : "VEC3"
        },
        {
            "bufferView" : 9,
            "componentType" : 5126,
            "count" : 104,
            "type" : "VEC3"
        },
        {
            "bufferView" : 10,
            "componentType" : 5126,
            "count" : 104,
            "type" : "VEC2"
        },
        {
            "bufferView" : 11,
            "componentType" : 5126,
            "count" : 100,
            "max" : [
                1,
                0.7999119758605957,
                1
            ],
            "min" : [
                -1,
                -1.0396324396133423,
                -1
            ],
            "type" : "VEC3"
        },
        {
            "bufferView" : 12,
            "componentType" : 5126,
            "count" : 100,
            "type" : "VEC3"
        },
        {
            "bufferView" : 13,
            "componentType" : 5126,
            "count" : 100,
            "type" : "VEC2"
        },
        {
            "bufferView" : 14,
            "componentType" : 5123,
            "count" : 588,
            "type" : "SCALAR"
        },
        {
            "bufferView" : 15,
            "componentType" : 5126,
            "count" : 224,
            "max" : [
                1.1658999919891357,
                0.1061447262763977,
                1.3072916269302368
            ],
            "min" : [
                -1.1658992767333984,
                -0.5111443400382996,
                -1.3072916269302368
            ],
            "type" : "VEC3"
        },
        {
            "bufferView" : 16,
            "componentType" : 5126,
            "count" : 224,
            "type" : "VEC3"
        },
        {
            "bufferView" : 17,
            "componentType" : 5126,
            "count" : 224,
            "type" : "VEC2"
        },
        {
            "bufferView" : 18,
            "componentType" : 5123,
            "count" : 240,
            "type" : "SCALAR"
        },
        {
            "bufferView" : 19,
            "componentType" : 5126,
            "count" : 110,
            "max" : [
                0.507607638835907,
                0.09417952597141266,
                1.069877028465271
            ],
            "min" : [
                -0.9512540698051453,
                -0.35737863183021545,
                -1.069877028465271
            ],
            "type" : "VEC3"
        },
        {
            "bufferView" : 20,
            "componentType" : 5126,
            "count" : 110,
            "type" : "VEC3"
        },
        {
            "bufferView" : 21,
            "componentType" : 5126,
            "count" : 110,
            "type" : "VEC2"
        },
        {
            "bufferView" : 22,
            "componentType" : 5123,
            "count" : 132,
            "type" : "SCALAR"
        }
    ],
    "bufferViews" : [
        {
            "buffer" : 0,
            "byteLength" : 3744,
            "byteOffset" : 0
        },
        {
            "buffer" : 0,
            "byteLength" : 3744,
            "byteOffset" : 3744
        },
        {
            "buffer" : 0,
            "byteLength" : 2496,
            "byteOffset" : 7488
        },
        {
            "buffer" : 0,
            "byteLength" : 2592,
            "byteOffset" : 9984
        },
        {
            "buffer" : 0,
            "byteLength" : 1248,
            "byteOffset" : 12576
        },
        {
            "buffer" : 0,
            "byteLength" : 1248,
            "byteOffset" : 13824
        },
        {
            "buffer" : 0,
            "byteLength" : 832,
            "byteOffset" : 15072
        },
        {
            "buffer" : 0,
            "byteLength" : 264,
            "byteOffset" : 15904
        },
        {
            "buffer" : 0,
            "byteLength" : 1248,
            "byteOffset" : 16168
        },
        {
            "buffer" : 0,
            "byteLength" : 1248,
            "byteOffset" : 17416
        },
        {
            "buffer" : 0,
            "byteLength" : 832,
            "byteOffset" : 18664
        },
        {
            "buffer" : 0,
            "byteLength" : 1200,
            "byteOffset" : 19496
        },
        {
            "buffer" : 0,
            "byteLength" : 1200,
            "byteOffset" : 20696
        },
        {
            "buffer" : 0,
            "byteLength" : 800,
            "byteOffset" : 21896
        },
        {
            "buffer" : 0,
            "byteLength" : 1176,
            "byteOffset" : 22696
        },
        {
            "buffer" : 0,
            "byteLength" : 2688,
            "byteOffset" : 23872
        },
        {
            "buffer" : 0,
            "byteLength" : 2688,
            "byteOffset" : 26560
        },
        {
            "buffer" : 0,
            "byteLength" : 1792,
            "byteOffset" : 29248
        },
        {
            "buffer" : 0,
            "byteLength" : 480,
            "byteOffset" : 31040
        },
        {
            "buffer" : 0,
            "byteLength" : 1320,
            "byteOffset" : 31520
        },
        {
            "buffer" : 0,
            "byteLength" : 1320,
            "byteOffset" : 32840
        },
        {
            "buffer" : 0,
            "byteLength" : 880,
            "byteOffset" : 34160
        },
        {
            "buffer" : 0,
            "byteLength" : 264,
            "byteOffset" : 35040
        }
    ],
    "buffers" : [
        {
            "byteLength" : 35304,
            "uri" : "data:application/octet-stream;base64,"
        }
    ]
}
